<?xml version="1.0" encoding="utf-8"?>
<!-- Generator: Adobe Illustrator 25.2.3, SVG Export Plug-In . SVG Version: 6.00 Build 0)  -->
<svg version="1.1" id="Layer" xmlns="http://www.w3.org/2000/svg" xmlns:xlink="http://www.w3.org/1999/xlink" x="0px" y="0px"
	 viewBox="0 0 1024 1024" style="enable-background:new 0 0 1024 1024;" xml:space="preserve">
<style type="text/css">
	.st0{fill:#D4145A;}
	.st1{fill:#D3BC8E;}
	.st2{fill:#FFFFFF;}
</style>
<g id="Layer">
	<g>
		<path class="st0" d="M545.5,8685.5"/>
		<path class="st0" d="M545.5-7697.5"/>
		<circle class="st0" cx="512" cy="512" r="512"/>
		<g>
			<path class="st0" d="M13.5,508.3C58.3,591,237.7,654.6,459.2,663.4l7.4-29.7c-189.1-9.6-344.3-78.2-393.9-169.2
				C43.6,477.8,23.2,492.6,13.5,508.3z"/>
			<path class="st0" d="M1010.5,508.8c-9.6-15.8-29.9-30.7-59.1-44.1c-49.7,91-204.9,159.5-394,169l7.4,29.7
				C786,654.7,965.3,591.3,1010.5,508.8z"/>
		</g>
		<g>
			<path class="st0" d="M512,749.6c-1.2,0-2.3-0.2-3.4-0.7c-5-2.1-9.2-5-12.5-8.9c-6.5-7.5-7.6-16.1-8-19.3l0-0.1
				c-0.4-2.8-0.7-6.3-1.2-10.4c-1.4-12.6-3.4-31.6-7.4-55c-5.1-4.4-17.4-16.1-25.8-33.6c-6.4-13.4-8.3-39.5-6.8-47.9
				c0.3-1.9,1.2-3.6,2.7-5c7.8-7.4,28.5-27.2,29.3-37.3l0.4-5.3c2-24.2,2.7-33.3,4.1-63.8c0.6-12.8,0.7-22,0.8-32.1
				c-16.3,17.2-33.1,48.3-35.1,56.3c-1,4.1-4.6,6.9-8.8,6.9c-0.7,0-1.3-0.1-2-0.2c-7.9-1.8-22.1-7.4-35.8-16.1
				c-13.3-8.4-24.5-17.8-30-25.1c-1.9-2.5-2.3-5.9-1.1-8.8c6.4-15.8,41.4-58.1,68.5-79.7c14.3-11.4,35.9-22.3,49.1-27.6l1.6-35.2
				c-14.3,10.1-29,16.9-42.4,19.6c-0.6,0.1-1.2,0.2-1.8,0.2c-4.1,0-7.7-2.8-8.8-6.7c-2.3-8.5-4.9-26.9-0.5-42.1
				c2.1-7.8,4.4-13.3,6.8-17.6c-3.3,0.8-6.8,2.4-10.5,5l-0.1,0.1c-11.9,8-10.3,26.2-3.5,40.7c1.3,2.8,1.1,6.1-0.5,8.7
				c-1.7,2.7-4.5,4.2-7.7,4.2c-1.6,0-3.3-0.5-4.7-1.3c-8-4.8-18.4-10.6-28.5-16.2c-11.3-6.3-23.1-12.7-31.7-18.1
				c-3.4-2.1-5-6.3-3.9-10.2c3.4-11.9,17.5-52.3,57.8-74.2c13.4-7.3,28.1-11.7,43.8-13.1l0.4,0l0.5,0c2.1,0,4.2,0.8,5.9,2.2
				c6.7,5.7,12.7,12.3,17.8,19.5c3.2,4.6,6.1,9.4,8.6,14.5c1.5-1.3,3.1-2.7,4.3-3.9v-29.7c-1.4-1.8-4.6-5.4-9-8.7
				c-1.9-1.4-4.1-2.1-6.7-2.1c-0.5,0-1.1,0-1.6,0.1c-0.4,0-0.7,0.1-1.1,0.1c-3.5,0-6.6-1.9-8.1-5.1c-1.5-3.1-1.2-6.8,1-9.6
				c13-16.7,19.3-32.2,18.7-45.8c0-0.5-0.1-1.1-0.1-1.8c-0.4-6.4-1.1-18.2,6-28.9c4-6.1,9.9-10.8,17.5-14.1c1.2-0.5,2.4-0.8,3.6-0.8
				s2.5,0.3,3.6,0.8c7.6,3.3,13.5,8.1,17.5,14.1c7.2,10.7,6.4,22.6,6,28.9c0,0.6-0.1,1.2-0.1,1.8c-0.6,13.7,5.6,29.1,18.7,45.8
				c2.1,2.8,2.5,6.4,1,9.6c-1.5,3.1-4.7,5.1-8.1,5.1c-0.4,0-0.7,0-1.1-0.1c-0.5-0.1-1.1-0.1-1.6-0.1c-2.6,0-4.8,0.7-6.7,2.1
				c-4.4,3.3-7.6,6.9-9,8.7v29.7c1.2,1.2,2.8,2.6,4.3,3.9c2.5-5.1,5.3-9.9,8.6-14.5c5.1-7.2,11.1-13.8,17.8-19.5
				c1.6-1.4,3.7-2.2,5.9-2.2h0.4l0.4,0c15.7,1.4,30.4,5.8,43.8,13.1c40.2,21.9,54.4,62.3,57.8,74.2c1.1,3.9-0.5,8.1-3.9,10.2
				c-8.6,5.4-20.4,11.8-31.7,18.1c-10.1,5.6-20.5,11.3-28.5,16.2c-1.4,0.9-3,1.3-4.7,1.3c-3.1,0-6-1.6-7.7-4.2
				c-1.7-2.6-1.9-5.9-0.5-8.7c6.9-14.5,8.5-32.7-3.5-40.7l-0.1-0.1c-3.7-2.6-7.2-4.2-10.5-5c2.4,4.3,4.7,9.8,6.8,17.6
				c4.5,15.3,1.8,33.7-0.5,42.1c-1.1,4-4.7,6.7-8.8,6.7c-0.6,0-1.2-0.1-1.8-0.2c-13.4-2.7-28.1-9.5-42.4-19.6l1.6,35.2
				c13.1,5.3,34.8,16.2,49.1,27.6c27.1,21.6,62.1,63.9,68.5,79.7c1.2,2.9,0.7,6.3-1.1,8.8c-5.5,7.3-16.7,16.7-30,25.1
				c-13.7,8.6-27.8,14.3-35.8,16.1c-0.6,0.1-1.3,0.2-2,0.2c0,0,0,0,0,0c-4.2,0-7.8-2.8-8.8-6.9c-2-7.9-18.8-39.1-35.1-56.3
				c0,10.1,0.2,19.3,0.8,32.1c1.4,30.5,2.2,39.5,4.1,63.8l0.4,5.3c0.8,10.1,21.5,29.9,29.3,37.3c1.4,1.4,2.4,3.1,2.7,5
				c1.5,8.4-0.4,34.4-6.8,47.9c-8.4,17.5-20.6,29.2-25.8,33.6c-4,23.4-6,42.3-7.4,55c-0.4,4.1-0.8,7.5-1.2,10.4l0,0.1
				c-0.4,3.2-1.5,11.9-8,19.3c-3.3,3.8-7.5,6.8-12.5,8.9C514.3,749.4,513.2,749.6,512,749.6z"/>
			<path class="st0" d="M512,73.4c0.1,0,0.3,0,0.4,0.1c4.4,1.9,10.1,5.3,14.1,11.2c6.3,9.5,4.8,20.2,4.6,25.9
				c-0.5,11.7,2.8,28.6,20.3,51.1c0.6,0.7,0,1.7-0.8,1.7c0,0-0.1,0-0.1,0c-0.7-0.1-1.6-0.1-2.5-0.1c-3.2,0-7.5,0.7-11.5,3.7
				c-7.1,5.3-12.1,11.9-12.2,13v34.7c0,0.3,0.1,0.5,0.3,0.7c3.3,3.9,10,8.9,13.8,12.9c0.2,0.2,0.5,0.3,0.8,0.3c0.4,0,0.8-0.2,1-0.7
				c2.3-6.1,5.9-13.9,11.6-22c5.6-8,11.6-13.9,16.4-18c0.2-0.2,0.4-0.3,0.7-0.3c0,0,0.1,0,0.1,0c10.5,0.9,25.3,3.7,40.7,12.2
				c37.8,20.6,50.9,58.7,53.9,69.3c0.1,0.5-0.1,0.9-0.5,1.2c-16.1,10-43,23.8-60.1,34.2c-0.2,0.1-0.4,0.2-0.6,0.2
				c-0.7,0-1.3-0.8-1-1.5c9-19.1,8.9-40.7-6.3-50.8c-7.6-5.3-14.1-6.9-19.1-6.9c-3.6,0-6.5,0.8-8.6,1.7c-0.6,0.3-0.9,1.1-0.4,1.6
				c4.5,6,8.6,11.3,12.2,24.9c3.7,12.5,1.9,29-0.5,37.9c-0.1,0.5-0.6,0.8-1,0.8c-0.1,0-0.1,0-0.2,0c-11.9-2.4-25.8-8.7-39.9-18.7
				c-0.2-0.1-0.3-0.3-0.4-0.5c-0.7-1.9-1.4-6.9-4.4-11.1c-3.2-4.5-4.3-5.2-6.8-6.2c-0.1-0.1-0.3-0.1-0.4-0.1c-0.6,0-1.1,0.5-1.1,1.1
				l2.9,63.9c0,0.4,0.3,0.8,0.7,1c11.4,4,36,15.9,51.1,28c27,21.5,60.5,62.6,66.1,76.4c0.1,0.3,0.1,0.7-0.1,1
				c-4,5.4-13.4,14.1-27.9,23.2c-13.7,8.6-26.8,13.6-33.2,15c-0.1,0-0.2,0-0.2,0c-0.5,0-0.9-0.3-1-0.8c-2.4-9.6-20.9-43.7-38.7-61.5
				c-4.1-4.1-6.8-6.1-10.7-7.8c-0.1-0.1-0.3-0.1-0.4-0.1c-0.6,0-1.1,0.5-1.1,1.1c0,16.6-0.1,27.9,0.8,46.4
				c1.5,32.8,2.3,41.2,4.6,69.4c0.9,11,14.4,25.9,31.8,42.4c0.2,0.2,0.3,0.4,0.3,0.6c1.3,7.3-0.7,31.6-6.2,43.1
				c-7.5,15.7-18.8,27-24.8,31.9c-0.7,0.6-1.2,1.4-1.3,2.3c-5.5,31.9-7.5,55.7-8.9,67.2c-0.3,2.8-1.1,9.5-6.1,15.2
				c-3.1,3.6-6.8,5.6-9.5,6.7c-0.1,0.1-0.3,0.1-0.4,0.1s-0.3,0-0.4-0.1c-2.7-1.1-6.4-3.1-9.5-6.7c-5-5.8-5.8-12.5-6.1-15.2
				c-1.5-11.6-3.4-35.3-8.9-67.2c-0.2-0.9-0.6-1.7-1.3-2.3c-6-4.9-17.3-16.2-24.8-31.9c-5.5-11.5-7.4-35.8-6.2-43.1
				c0-0.2,0.2-0.4,0.3-0.6c17.4-16.6,30.9-31.5,31.8-42.4c2.3-28.2,3-36.6,4.6-69.4c0.9-18.5,0.8-29.8,0.8-46.4
				c0-0.6-0.5-1.1-1.1-1.1c-0.1,0-0.3,0-0.4,0.1c-3.9,1.7-6.6,3.7-10.7,7.8c-17.8,17.8-36.3,51.9-38.7,61.5c-0.1,0.5-0.5,0.8-1,0.8
				c-0.1,0-0.2,0-0.2,0c-6.4-1.4-19.6-6.4-33.2-15c-14.4-9.1-23.8-17.8-27.9-23.2c-0.2-0.3-0.3-0.7-0.1-1
				c5.6-13.8,39.1-54.9,66.1-76.4c15.2-12.1,39.7-23.9,51.1-28c0.4-0.1,0.7-0.5,0.7-1l2.9-63.9c0-0.6-0.5-1.1-1.1-1.1
				c-0.1,0-0.3,0-0.4,0.1c-2.6,1-3.6,1.7-6.8,6.2c-3,4.2-3.7,9.2-4.4,11.1c-0.1,0.2-0.2,0.4-0.4,0.5c-14.1,10-28,16.3-39.9,18.7
				c-0.1,0-0.1,0-0.2,0c-0.5,0-0.9-0.3-1-0.8c-2.4-8.9-4.2-25.4-0.5-37.9c3.6-13.5,7.7-18.9,12.2-24.9c0.4-0.6,0.2-1.4-0.4-1.6
				c-2.1-0.9-5-1.7-8.6-1.7c-5,0-11.4,1.6-19.1,6.9c-15.1,10.1-15.3,31.7-6.3,50.8c0.4,0.8-0.2,1.5-1,1.5c-0.2,0-0.4,0-0.6-0.2
				c-17.1-10.4-44.1-24.2-60.1-34.2c-0.4-0.3-0.6-0.7-0.5-1.2c3-10.7,16.1-48.8,53.9-69.3c15.4-8.4,30.3-11.2,40.7-12.2
				c0,0,0.1,0,0.1,0c0.3,0,0.5,0.1,0.7,0.3c4.8,4.1,10.8,10,16.4,18c5.7,8.1,9.3,15.8,11.6,22c0.2,0.4,0.6,0.7,1,0.7
				c0.3,0,0.6-0.1,0.8-0.3c3.8-4,10.5-9,13.8-12.9c0.2-0.2,0.3-0.4,0.3-0.7V180c0-1.1-5.1-7.7-12.2-13c-4-3-8.3-3.7-11.5-3.7
				c-0.9,0-1.8,0.1-2.5,0.1c0,0-0.1,0-0.1,0c-0.9,0-1.4-1-0.8-1.7c17.5-22.6,20.9-39.4,20.3-51.1c-0.3-5.7-1.7-16.4,4.6-25.9
				c4-6,9.7-9.3,14.1-11.2C511.7,73.4,511.9,73.4,512,73.4 M512,57.4c-2.4,0-4.7,0.5-6.9,1.4c-9,3.9-16,9.7-20.9,17
				c-8.7,13-7.8,26.6-7.3,33.9c0,0.6,0.1,1.2,0.1,1.7c0.5,11.7-5.2,25.3-17,40.5c-4,5.2-4.7,12.1-1.9,18c0.4,0.8,0.8,1.6,1.3,2.3
				c-1.4-0.3-2.8-0.5-4.2-0.5c-0.5,0-1,0-1.5,0.1c-16.8,1.5-32.6,6.2-47,14c-42.9,23.4-58,66.4-61.6,79c-2.1,7.3,1,15.2,7.4,19.2
				c8.8,5.5,20.6,12,32.1,18.3c10,5.5,20.4,11.2,28.2,16c2.7,1.6,5.7,2.5,8.8,2.5c3.3,0,6.4-0.9,9.1-2.6c2.7,6.2,8.8,10.3,15.7,10.3
				c1.1,0,2.3-0.1,3.4-0.3c10.3-2.1,21.2-6.3,32.1-12.5l-0.7,14.9c-13.7,6-33.1,16.2-46.3,26.7c-13,10.4-28.8,26.1-43.3,43.3
				c-6.7,7.9-22.7,27.5-27.7,39.7c-2.2,5.5-1.4,11.9,2.2,16.6c6.1,8.2,17.8,18.1,32.1,27.1c15.5,9.8,30.3,15.3,38.3,17.1
				c1.2,0.3,2.5,0.4,3.7,0.4c7.9,0,14.7-5.3,16.6-13c1.1-4.3,9-19.9,18.9-34.6c-0.1,2.6-0.2,5.3-0.3,8.1
				c-1.4,30.3-2.1,39.4-4.1,63.5l-0.4,5.3c0,0.1-0.5,3.2-6.6,10.9c-4.5,5.6-10.9,12.4-20.2,21.3c-2.7,2.5-4.4,5.8-5,9.4
				c-1.8,10.7,0.5,38.1,7.5,52.7c7.9,16.7,19.2,28.5,25.6,34.3c3.6,21.9,5.6,39.7,6.9,51.7c0.4,4.1,0.8,7.6,1.2,10.5l0,0.1
				c0.5,3.9,1.8,14.3,9.9,23.6c4.1,4.8,9.3,8.5,15.5,11c2.1,0.9,4.3,1.3,6.5,1.3c2.2,0,4.4-0.4,6.5-1.3c6.2-2.5,11.4-6.3,15.5-11
				c8.1-9.3,9.4-19.7,9.9-23.6l0-0.1c0.4-2.9,0.7-6.4,1.2-10.5c1.3-12,3.3-29.8,6.9-51.7c6.3-5.8,17.6-17.6,25.6-34.3
				c6.9-14.6,9.3-42,7.5-52.7c-0.6-3.6-2.4-6.9-5-9.4c-9.3-8.9-15.7-15.6-20.2-21.3c-6.2-7.7-6.6-10.8-6.6-10.9l-0.4-5.3
				c-2-24.1-2.7-33.1-4.1-63.5c-0.1-2.9-0.2-5.6-0.3-8.1c10,14.7,17.8,30.3,18.9,34.6c1.9,7.6,8.7,13,16.6,13c1.2,0,2.5-0.1,3.7-0.4
				c8-1.8,22.8-7.3,38.3-17.1c14.3-9,26-18.9,32.1-27.1c3.5-4.7,4.4-11.1,2.2-16.6c-4.9-12.2-21-31.8-27.7-39.7
				c-14.5-17.1-30.3-32.9-43.3-43.3c-13.2-10.5-32.6-20.7-46.3-26.7l-0.7-14.9c10.9,6.1,21.8,10.4,32.1,12.5
				c1.1,0.2,2.3,0.3,3.4,0.3c6.9,0,13-4.1,15.7-10.3c2.7,1.7,5.8,2.6,9.1,2.6c3.1,0,6.2-0.9,8.8-2.5c7.9-4.8,18.2-10.5,28.2-16
				c11.4-6.3,23.3-12.8,32.1-18.3c6.4-4,9.5-11.9,7.4-19.2c-3.6-12.6-18.7-55.6-61.6-79c-14.4-7.8-30.2-12.5-46.9-14
				c-0.5,0-1-0.1-1.5-0.1c-1.4,0-2.8,0.2-4.2,0.5c0.5-0.7,0.9-1.5,1.3-2.3c2.9-5.9,2.2-12.8-1.9-18c-11.8-15.2-17.5-28.8-17-40.5
				c0-0.5,0.1-1.1,0.1-1.7c0.5-7.3,1.3-20.9-7.3-33.9c-4.9-7.3-11.9-13.1-20.9-17C516.7,57.9,514.4,57.4,512,57.4L512,57.4z
				 M483.8,194.4c-4.1-5.5-8.6-10.6-13.6-15.3c1.1,0.2,2.2,0.3,3.3,0.3c0.7,0,1.3,0,2-0.1c0.2,0,0.5,0,0.7,0c1.2,0,1.7,0.4,1.9,0.5
				c2.4,1.8,4.4,3.7,5.8,5.2V194.4L483.8,194.4z M550.6,179.5c1.1,0,2.2-0.1,3.3-0.3c-5,4.7-9.6,9.8-13.6,15.3v-9.3
				c1.4-1.5,3.4-3.5,5.8-5.2c0.2-0.2,0.7-0.5,1.9-0.5c0.2,0,0.4,0,0.6,0C549.2,179.4,549.9,179.5,550.6,179.5L550.6,179.5z"/>
		</g>
		<g>
			<g>
				<path class="st0" d="M1014.6,526.7c-31.5-30-88.5-51-134.4-63.9c-75.6-21.3-170.5-35.4-274.7-40.8l-19.3-92.1
					c103.8,6.4,199.1,25.9,276.2,56.5c38.5,15.3,71.1,32.9,96.9,52.3c25.3,19.1,43.4,39.4,53.8,60.6
					C1013.8,508.3,1014.3,517.5,1014.6,526.7z"/>
				<path class="st0" d="M596.1,338.5c46.4,3.3,91.3,9.3,133.9,17.9c47.4,9.6,91,22.2,129.4,37.4c37.9,15,69.9,32.3,95,51.2
					c23.8,17.9,40.8,36.9,50.8,56.4c0.2,2.5,0.4,5,0.6,7.5c-7.8-5.8-16.8-11.4-26.9-16.8c-25.5-13.7-58-26.2-96.5-37.1
					C807.7,434,714.5,420,612,414.3L596.1,338.5 M576.2,321.2l22.7,108.4c216.2,10.5,386.8,58.5,423.9,119.4c0-2.3,0.1-4.7,0.1-7
					c0-15.2-0.7-30.1-2-45C976.8,404.6,798.3,333,576.2,321.2L576.2,321.2z"/>
			</g>
			<g>
				<path class="st0" d="M9.4,526.7c0.3-9.2,0.8-18.4,1.6-27.5c10.4-21.1,28.5-41.5,53.8-60.6c25.8-19.4,58.4-37,96.9-52.3
					c77.1-30.6,172.4-50.1,276.2-56.5l-19.3,92.1c-104.2,5.4-199.1,19.5-274.7,40.8C97.9,475.7,40.9,496.6,9.4,526.7z"/>
				<path class="st0" d="M427.9,338.5L412,414.3C309.5,420,216.3,434,141.7,455c-38.6,10.9-71,23.3-96.5,37.1
					c-10.1,5.4-19,11-26.9,16.8c0.2-2.5,0.3-5,0.6-7.5c9.9-19.5,27-38.5,50.8-56.4c25.2-19,57.2-36.2,95-51.2
					c38.4-15.3,82-27.8,129.4-37.4C336.5,347.8,381.5,341.8,427.9,338.5 M447.8,321.2C225.7,333,47.2,404.6,3.1,497
					c-1.3,14.8-2,29.8-2,45c0,2.4,0,4.7,0.1,7c37.1-60.9,207.7-108.9,423.9-119.4L447.8,321.2L447.8,321.2z"/>
			</g>
		</g>
	</g>
	<g>
		<circle class="st1" cx="512" cy="512" r="512"/>
		<g>
			<path class="st2" d="M13.5,508.3C58.3,591,237.7,654.6,459.2,663.4l7.4-29.7c-189.1-9.6-344.3-78.2-393.9-169.2
				C43.6,477.8,23.2,492.6,13.5,508.3z"/>
			<path class="st2" d="M1010.5,508.8c-9.6-15.8-29.9-30.7-59.1-44.1c-49.7,91-204.9,159.5-394,169l7.4,29.7
				C786,654.7,965.3,591.3,1010.5,508.8z"/>
		</g>
		<g>
			<path class="st2" d="M512,749.6c-1.2,0-2.3-0.2-3.4-0.7c-5-2.1-9.2-5-12.5-8.9c-6.5-7.5-7.6-16.1-8-19.3l0-0.1
				c-0.4-2.8-0.7-6.3-1.2-10.4c-1.4-12.6-3.4-31.6-7.4-55c-5.1-4.4-17.4-16.1-25.8-33.6c-6.4-13.4-8.3-39.5-6.8-47.9
				c0.3-1.9,1.2-3.6,2.7-5c7.8-7.4,28.5-27.2,29.3-37.3l0.4-5.3c2-24.2,2.7-33.3,4.1-63.8c0.6-12.8,0.7-22,0.8-32.1
				c-16.3,17.2-33.1,48.3-35.1,56.3c-1,4.1-4.6,6.9-8.8,6.9c-0.7,0-1.3-0.1-2-0.2c-7.9-1.8-22.1-7.4-35.8-16.1
				c-13.3-8.4-24.5-17.8-30-25.1c-1.9-2.5-2.3-5.9-1.1-8.8c6.4-15.8,41.4-58.1,68.5-79.7c14.3-11.4,35.9-22.3,49.1-27.6l1.6-35.2
				c-14.3,10.1-29,16.9-42.4,19.6c-0.6,0.1-1.2,0.2-1.8,0.2c-4.1,0-7.7-2.8-8.8-6.7c-2.3-8.5-4.9-26.9-0.5-42.1
				c2.1-7.8,4.4-13.3,6.8-17.6c-3.3,0.8-6.8,2.4-10.5,5l-0.1,0.1c-11.9,8-10.3,26.2-3.5,40.7c1.3,2.8,1.1,6.1-0.5,8.7
				c-1.7,2.7-4.5,4.2-7.7,4.2c-1.6,0-3.3-0.5-4.7-1.3c-8-4.8-18.4-10.6-28.5-16.2c-11.3-6.3-23.1-12.7-31.7-18.1
				c-3.4-2.1-5-6.3-3.9-10.2c3.4-11.9,17.5-52.3,57.8-74.2c13.4-7.3,28.1-11.7,43.8-13.1l0.4,0l0.5,0c2.1,0,4.2,0.8,5.9,2.2
				c6.7,5.7,12.7,12.3,17.8,19.5c3.2,4.6,6.1,9.4,8.6,14.5c1.5-1.3,3.1-2.7,4.3-3.9v-29.7c-1.4-1.8-4.6-5.4-9-8.7
				c-1.9-1.4-4.1-2.1-6.7-2.1c-0.5,0-1.1,0-1.6,0.1c-0.4,0-0.7,0.1-1.1,0.1c-3.5,0-6.6-1.9-8.1-5.1c-1.5-3.1-1.2-6.8,1-9.6
				c13-16.7,19.3-32.2,18.7-45.8c0-0.5-0.1-1.1-0.1-1.8c-0.4-6.4-1.1-18.2,6-28.9c4-6.1,9.9-10.8,17.5-14.1c1.2-0.5,2.4-0.8,3.6-0.8
				s2.5,0.3,3.6,0.8c7.6,3.3,13.5,8.1,17.5,14.1c7.2,10.7,6.4,22.6,6,28.9c0,0.6-0.1,1.2-0.1,1.8c-0.6,13.7,5.6,29.1,18.7,45.8
				c2.1,2.8,2.5,6.4,1,9.6c-1.5,3.1-4.7,5.1-8.1,5.1c-0.4,0-0.7,0-1.1-0.1c-0.5-0.1-1.1-0.1-1.6-0.1c-2.6,0-4.8,0.7-6.7,2.1
				c-4.4,3.3-7.6,6.9-9,8.7v29.7c1.2,1.2,2.8,2.6,4.3,3.9c2.5-5.1,5.3-9.9,8.6-14.5c5.1-7.2,11.1-13.8,17.8-19.5
				c1.6-1.4,3.7-2.2,5.9-2.2h0.4l0.4,0c15.7,1.4,30.4,5.8,43.8,13.1c40.2,21.9,54.4,62.3,57.8,74.2c1.1,3.9-0.5,8.1-3.9,10.2
				c-8.6,5.4-20.4,11.8-31.7,18.1c-10.1,5.6-20.5,11.3-28.5,16.2c-1.4,0.9-3,1.3-4.7,1.3c-3.1,0-6-1.6-7.7-4.2
				c-1.7-2.6-1.9-5.9-0.5-8.7c6.9-14.5,8.5-32.7-3.5-40.7l-0.1-0.1c-3.7-2.6-7.2-4.2-10.5-5c2.4,4.3,4.7,9.8,6.8,17.6
				c4.5,15.3,1.8,33.7-0.5,42.1c-1.1,4-4.7,6.7-8.8,6.7c-0.6,0-1.2-0.1-1.8-0.2c-13.4-2.7-28.1-9.5-42.4-19.6l1.6,35.2
				c13.1,5.3,34.8,16.2,49.1,27.6c27.1,21.6,62.1,63.9,68.5,79.7c1.2,2.9,0.7,6.3-1.1,8.8c-5.5,7.3-16.7,16.7-30,25.1
				c-13.7,8.6-27.8,14.3-35.8,16.1c-0.6,0.1-1.3,0.2-2,0.2c0,0,0,0,0,0c-4.2,0-7.8-2.8-8.8-6.9c-2-7.9-18.8-39.1-35.1-56.3
				c0,10.1,0.2,19.3,0.8,32.1c1.4,30.5,2.2,39.5,4.1,63.8l0.4,5.3c0.8,10.1,21.5,29.9,29.3,37.3c1.4,1.4,2.4,3.1,2.7,5
				c1.5,8.4-0.4,34.4-6.8,47.9c-8.4,17.5-20.6,29.2-25.8,33.6c-4,23.4-6,42.3-7.4,55c-0.4,4.1-0.8,7.5-1.2,10.4l0,0.1
				c-0.4,3.2-1.5,11.9-8,19.3c-3.3,3.8-7.5,6.8-12.5,8.9C514.3,749.4,513.2,749.6,512,749.6z"/>
			<path class="st1" d="M512,73.4c0.1,0,0.3,0,0.4,0.1c4.4,1.9,10.1,5.3,14.1,11.2c6.3,9.5,4.8,20.2,4.6,25.9
				c-0.5,11.7,2.8,28.6,20.3,51.1c0.6,0.7,0,1.7-0.8,1.7c0,0-0.1,0-0.1,0c-0.7-0.1-1.6-0.1-2.5-0.1c-3.2,0-7.5,0.7-11.5,3.7
				c-7.1,5.3-12.1,11.9-12.2,13v34.7c0,0.3,0.1,0.5,0.3,0.7c3.3,3.9,10,8.9,13.8,12.9c0.2,0.2,0.5,0.3,0.8,0.3c0.4,0,0.8-0.2,1-0.7
				c2.3-6.1,5.9-13.9,11.6-22c5.6-8,11.6-13.9,16.4-18c0.2-0.2,0.4-0.3,0.7-0.3c0,0,0.1,0,0.1,0c10.5,0.9,25.3,3.7,40.7,12.2
				c37.8,20.6,50.9,58.7,53.9,69.3c0.1,0.5-0.1,0.9-0.5,1.2c-16.1,10-43,23.8-60.1,34.2c-0.2,0.1-0.4,0.2-0.6,0.2
				c-0.7,0-1.3-0.8-1-1.5c9-19.1,8.9-40.7-6.3-50.8c-7.6-5.3-14.1-6.9-19.1-6.9c-3.6,0-6.5,0.8-8.6,1.7c-0.6,0.3-0.9,1.1-0.4,1.6
				c4.5,6,8.6,11.3,12.2,24.9c3.7,12.5,1.9,29-0.5,37.9c-0.1,0.5-0.6,0.8-1,0.8c-0.1,0-0.1,0-0.2,0c-11.9-2.4-25.8-8.7-39.9-18.7
				c-0.2-0.1-0.3-0.3-0.4-0.5c-0.7-1.9-1.4-6.9-4.4-11.1c-3.2-4.5-4.3-5.2-6.8-6.2c-0.1-0.1-0.3-0.1-0.4-0.1c-0.6,0-1.1,0.5-1.1,1.1
				l2.9,63.9c0,0.4,0.3,0.8,0.7,1c11.4,4,36,15.9,51.1,28c27,21.5,60.5,62.6,66.1,76.4c0.1,0.3,0.1,0.7-0.1,1
				c-4,5.4-13.4,14.1-27.9,23.2c-13.7,8.6-26.8,13.6-33.2,15c-0.1,0-0.2,0-0.2,0c-0.5,0-0.9-0.3-1-0.8c-2.4-9.6-20.9-43.7-38.7-61.5
				c-4.1-4.1-6.8-6.1-10.7-7.8c-0.1-0.1-0.3-0.1-0.4-0.1c-0.6,0-1.1,0.5-1.1,1.1c0,16.6-0.1,27.9,0.8,46.4
				c1.5,32.8,2.3,41.2,4.6,69.4c0.9,11,14.4,25.9,31.8,42.4c0.2,0.2,0.3,0.4,0.3,0.6c1.3,7.3-0.7,31.6-6.2,43.1
				c-7.5,15.7-18.8,27-24.8,31.9c-0.7,0.6-1.2,1.4-1.3,2.3c-5.5,31.9-7.5,55.7-8.9,67.2c-0.3,2.8-1.1,9.5-6.1,15.2
				c-3.1,3.6-6.8,5.6-9.5,6.7c-0.1,0.1-0.3,0.1-0.4,0.1s-0.3,0-0.4-0.1c-2.7-1.1-6.4-3.1-9.5-6.7c-5-5.8-5.8-12.5-6.1-15.2
				c-1.5-11.6-3.4-35.3-8.9-67.2c-0.2-0.9-0.6-1.7-1.3-2.3c-6-4.9-17.3-16.2-24.8-31.9c-5.5-11.5-7.4-35.8-6.2-43.1
				c0-0.2,0.2-0.4,0.3-0.6c17.4-16.6,30.9-31.5,31.8-42.4c2.3-28.2,3-36.6,4.6-69.4c0.9-18.5,0.8-29.8,0.8-46.4
				c0-0.6-0.5-1.1-1.1-1.1c-0.1,0-0.3,0-0.4,0.1c-3.9,1.7-6.6,3.7-10.7,7.8c-17.8,17.8-36.3,51.9-38.7,61.5c-0.1,0.5-0.5,0.8-1,0.8
				c-0.1,0-0.2,0-0.2,0c-6.4-1.4-19.6-6.4-33.2-15c-14.4-9.1-23.8-17.8-27.9-23.2c-0.2-0.3-0.3-0.7-0.1-1
				c5.6-13.8,39.1-54.9,66.1-76.4c15.2-12.1,39.7-23.9,51.1-28c0.4-0.1,0.7-0.5,0.7-1l2.9-63.9c0-0.6-0.5-1.1-1.1-1.1
				c-0.1,0-0.3,0-0.4,0.1c-2.6,1-3.6,1.7-6.8,6.2c-3,4.2-3.7,9.2-4.4,11.1c-0.1,0.2-0.2,0.4-0.4,0.5c-14.1,10-28,16.3-39.9,18.7
				c-0.1,0-0.1,0-0.2,0c-0.5,0-0.9-0.3-1-0.8c-2.4-8.9-4.2-25.4-0.5-37.9c3.6-13.5,7.7-18.9,12.2-24.9c0.4-0.6,0.2-1.4-0.4-1.6
				c-2.1-0.9-5-1.7-8.6-1.7c-5,0-11.4,1.6-19.1,6.9c-15.1,10.1-15.3,31.7-6.3,50.8c0.4,0.8-0.2,1.5-1,1.5c-0.2,0-0.4,0-0.6-0.2
				c-17.1-10.4-44.1-24.2-60.1-34.2c-0.4-0.3-0.6-0.7-0.5-1.2c3-10.7,16.1-48.8,53.9-69.3c15.4-8.4,30.3-11.2,40.7-12.2
				c0,0,0.1,0,0.1,0c0.3,0,0.5,0.1,0.7,0.3c4.8,4.1,10.8,10,16.4,18c5.7,8.1,9.3,15.8,11.6,22c0.2,0.4,0.6,0.7,1,0.7
				c0.3,0,0.6-0.1,0.8-0.3c3.8-4,10.5-9,13.8-12.9c0.2-0.2,0.3-0.4,0.3-0.7V180c0-1.1-5.1-7.7-12.2-13c-4-3-8.3-3.7-11.5-3.7
				c-0.9,0-1.8,0.1-2.5,0.1c0,0-0.1,0-0.1,0c-0.9,0-1.4-1-0.8-1.7c17.5-22.6,20.9-39.4,20.3-51.1c-0.3-5.7-1.7-16.4,4.6-25.9
				c4-6,9.7-9.3,14.1-11.2C511.7,73.4,511.9,73.4,512,73.4 M512,57.4c-2.4,0-4.7,0.5-6.9,1.4c-9,3.9-16,9.7-20.9,17
				c-8.7,13-7.8,26.6-7.3,33.9c0,0.6,0.1,1.2,0.1,1.7c0.5,11.7-5.2,25.3-17,40.5c-4,5.2-4.7,12.1-1.9,18c0.4,0.8,0.8,1.6,1.3,2.3
				c-1.4-0.3-2.8-0.5-4.2-0.5c-0.5,0-1,0-1.5,0.1c-16.8,1.5-32.6,6.2-47,14c-42.9,23.4-58,66.4-61.6,79c-2.1,7.3,1,15.2,7.4,19.2
				c8.8,5.5,20.6,12,32.1,18.3c10,5.5,20.4,11.2,28.2,16c2.7,1.6,5.7,2.5,8.8,2.5c3.3,0,6.4-0.9,9.1-2.6c2.7,6.2,8.8,10.3,15.7,10.3
				c1.1,0,2.3-0.1,3.4-0.3c10.3-2.1,21.2-6.3,32.1-12.5l-0.7,14.9c-13.7,6-33.1,16.2-46.3,26.7c-13,10.4-28.8,26.1-43.3,43.3
				c-6.7,7.9-22.7,27.5-27.7,39.7c-2.2,5.5-1.4,11.9,2.2,16.6c6.1,8.2,17.8,18.1,32.1,27.1c15.5,9.8,30.3,15.3,38.3,17.1
				c1.2,0.3,2.5,0.4,3.7,0.4c7.9,0,14.7-5.3,16.6-13c1.1-4.3,9-19.9,18.9-34.6c-0.1,2.6-0.2,5.3-0.3,8.1
				c-1.4,30.3-2.1,39.4-4.1,63.5l-0.4,5.3c0,0.1-0.5,3.2-6.6,10.9c-4.5,5.6-10.9,12.4-20.2,21.3c-2.7,2.5-4.4,5.8-5,9.4
				c-1.8,10.7,0.5,38.1,7.5,52.7c7.9,16.7,19.2,28.5,25.6,34.3c3.6,21.9,5.6,39.7,6.9,51.7c0.4,4.1,0.8,7.6,1.2,10.5l0,0.1
				c0.5,3.9,1.8,14.3,9.9,23.6c4.1,4.8,9.3,8.5,15.5,11c2.1,0.9,4.3,1.3,6.5,1.3c2.2,0,4.4-0.4,6.5-1.3c6.2-2.5,11.4-6.3,15.5-11
				c8.1-9.3,9.4-19.7,9.9-23.6l0-0.1c0.4-2.9,0.7-6.4,1.2-10.5c1.3-12,3.3-29.8,6.9-51.7c6.3-5.8,17.6-17.6,25.6-34.3
				c6.9-14.6,9.3-42,7.5-52.7c-0.6-3.6-2.4-6.9-5-9.4c-9.3-8.9-15.7-15.6-20.2-21.3c-6.2-7.7-6.6-10.8-6.6-10.9l-0.4-5.3
				c-2-24.1-2.7-33.1-4.1-63.5c-0.1-2.9-0.2-5.6-0.3-8.1c10,14.7,17.8,30.3,18.9,34.6c1.9,7.6,8.7,13,16.6,13c1.2,0,2.5-0.1,3.7-0.4
				c8-1.8,22.8-7.3,38.3-17.1c14.3-9,26-18.9,32.1-27.1c3.5-4.7,4.4-11.1,2.2-16.6c-4.9-12.2-21-31.8-27.7-39.7
				c-14.5-17.1-30.3-32.9-43.3-43.3c-13.2-10.5-32.6-20.7-46.3-26.7l-0.7-14.9c10.9,6.1,21.8,10.4,32.1,12.5
				c1.1,0.2,2.3,0.3,3.4,0.3c6.9,0,13-4.1,15.7-10.3c2.7,1.7,5.8,2.6,9.1,2.6c3.1,0,6.2-0.9,8.8-2.5c7.9-4.8,18.2-10.5,28.2-16
				c11.4-6.3,23.3-12.8,32.1-18.3c6.4-4,9.5-11.9,7.4-19.2c-3.6-12.6-18.7-55.6-61.6-79c-14.4-7.8-30.2-12.5-46.9-14
				c-0.5,0-1-0.1-1.5-0.1c-1.4,0-2.8,0.2-4.2,0.5c0.5-0.7,0.9-1.5,1.3-2.3c2.9-5.9,2.2-12.8-1.9-18c-11.8-15.2-17.5-28.8-17-40.5
				c0-0.5,0.1-1.1,0.1-1.7c0.5-7.3,1.3-20.9-7.3-33.9c-4.9-7.3-11.9-13.1-20.9-17C516.7,57.9,514.4,57.4,512,57.4L512,57.4z
				 M483.8,194.4c-4.1-5.5-8.6-10.6-13.6-15.3c1.1,0.2,2.2,0.3,3.3,0.3c0.7,0,1.3,0,2-0.1c0.2,0,0.5,0,0.7,0c1.2,0,1.7,0.4,1.9,0.5
				c2.4,1.8,4.4,3.7,5.8,5.2V194.4L483.8,194.4z M550.6,179.5c1.1,0,2.2-0.1,3.3-0.3c-5,4.7-9.6,9.8-13.6,15.3v-9.3
				c1.4-1.5,3.4-3.5,5.8-5.2c0.2-0.2,0.7-0.5,1.9-0.5c0.2,0,0.4,0,0.6,0C549.2,179.4,549.9,179.5,550.6,179.5L550.6,179.5z"/>
		</g>
		<g>
			<g>
				<path class="st2" d="M1014.6,526.7c-31.5-30-88.5-51-134.4-63.9c-75.6-21.3-170.5-35.4-274.7-40.8l-19.3-92.1
					c103.8,6.4,199.1,25.9,276.2,56.5c38.5,15.3,71.1,32.9,96.9,52.3c25.3,19.1,43.4,39.4,53.8,60.6
					C1013.8,508.3,1014.3,517.5,1014.6,526.7z"/>
				<path class="st1" d="M596.1,338.5c46.4,3.3,91.3,9.3,133.9,17.9c47.4,9.6,91,22.2,129.4,37.4c37.9,15,69.9,32.3,95,51.2
					c23.8,17.9,40.8,36.9,50.8,56.4c0.2,2.5,0.4,5,0.6,7.5c-7.8-5.8-16.8-11.4-26.9-16.8c-25.5-13.7-58-26.2-96.5-37.1
					C807.7,434,714.5,420,612,414.3L596.1,338.5 M576.2,321.2l22.7,108.4c216.2,10.5,386.8,58.5,423.9,119.4c0-2.3,0.1-4.7,0.1-7
					c0-15.2-0.7-30.1-2-45C976.8,404.6,798.3,333,576.2,321.2L576.2,321.2z"/>
			</g>
			<g>
				<path class="st2" d="M9.4,526.7c0.3-9.2,0.8-18.4,1.6-27.5c10.4-21.1,28.5-41.5,53.8-60.6c25.8-19.4,58.4-37,96.9-52.3
					c77.1-30.6,172.4-50.1,276.2-56.5l-19.3,92.1c-104.2,5.4-199.1,19.5-274.7,40.8C97.9,475.7,40.9,496.6,9.4,526.7z"/>
				<path class="st1" d="M427.9,338.5L412,414.3C309.5,420,216.3,434,141.7,455c-38.6,10.9-71,23.3-96.5,37.1
					c-10.1,5.4-19,11-26.9,16.8c0.2-2.5,0.3-5,0.6-7.5c9.9-19.5,27-38.5,50.8-56.4c25.2-19,57.2-36.2,95-51.2
					c38.4-15.3,82-27.8,129.4-37.4C336.5,347.8,381.5,341.8,427.9,338.5 M447.8,321.2C225.7,333,47.2,404.6,3.1,497
					c-1.3,14.8-2,29.8-2,45c0,2.4,0,4.7,0.1,7c37.1-60.9,207.7-108.9,423.9-119.4L447.8,321.2L447.8,321.2z"/>
			</g>
		</g>
	</g>
</g>
</svg>
